<?xml version="1.0" standalone="no"?><svg xmlns="http://www.w3.org/2000/svg" viewBox="0 0 1440 320"><path fill="#70E000" fill-opacity="1" d="M0,32L26.7,74.7C53.3,117,107,203,160,202.7C213.3,203,267,117,320,90.7C373.3,64,427,96,480,133.3C533.3,171,587,213,640,240C693.3,267,747,277,800,272C853.3,267,907,245,960,197.3C1013.3,149,1067,75,1120,53.3C1173.3,32,1227,64,1280,101.3C1333.3,139,1387,181,1413,202.7L1440,224L1440,0L1413.3,0C1386.7,0,1333,0,1280,0C1226.7,0,1173,0,1120,0C1066.7,0,1013,0,960,0C906.7,0,853,0,800,0C746.7,0,693,0,640,0C586.7,0,533,0,480,0C426.7,0,373,0,320,0C266.7,0,213,0,160,0C106.7,0,53,0,27,0L0,0Z"></path></svg>